<svg height="512pt" viewBox="0 0 512 512" width="512pt" xmlns="http://www.w3.org/2000/svg"><path d="m497 181c-8.285156 0-15 6.714844-15 15v135h-84.417969l-6.734375-47.121094c-1.054687-7.390625-7.382812-12.878906-14.847656-12.878906h-15v-32.578125c17.460938-6.195313 30-22.867187 30-42.421875v-30c0-8.285156-6.714844-15-15-15h-60c-8.285156 0-15 6.714844-15 15v30c0 19.554688 12.539062 36.226562 30 42.421875v32.578125h-150v-32.578125c17.460938-6.195313 30-22.867187 30-42.421875v-30c0-8.285156-6.714844-15-15-15h-60c-8.285156 0-15 6.714844-15 15v30c0 19.554688 12.539062 36.226562 30 42.421875v32.578125h-15c-7.464844 0-13.792969 5.488281-14.847656 12.878906l-6.734375 47.121094h-84.417969v-135c0-8.285156-6.714844-15-15-15s-15 6.714844-15 15v300.980469c0 8.285156 6.714844 15 15 15s15-6.714844 15-15v-75.980469h71.5625l-3.070312 21.480469c-.882813 6.183593 2.15625 12.265625 7.632812 15.273437 5.476562 3.003906 12.238281 2.300782 16.980469-1.765625 4.511719-3.867187 10.5625-5.605469 16.589843-4.777343 4.316407.597656 8.199219 2.453124 11.304688 5.335937v40.453125c0 8.285156 6.714844 15 15 15s15-6.714844 15-15v-16.363281c5.015625 1.621093 10.320312 2.484375 15.75 2.484375 17.105469 0 32.988281-8.5 42.480469-22.734375 3.972656-5.957031 10.359375-9.375 17.519531-9.375s13.546875 3.417969 17.519531 9.375c9.488281 14.234375 25.371094 22.734375 42.480469 22.734375 4.894531 0 9.679688-.71875 14.25-2.042969v15.921875c0 8.285156 6.714844 15 15 15s15-6.714844 15-15v-38.882812c3.160156-3.601563 7.378906-5.996094 12.148438-6.804688 5.777343-.976562 11.703124.441406 16.265624 3.890625 4.851563 3.664063 11.429688 4.042969 16.664063.957031 5.238281-3.085937 8.09375-9.027344 7.234375-15.042968l-2.875-20.117188h71.5625v76c0 8.285156 6.714844 15 15 15s15-6.714844 15-15c0-33.367188 0-268.574219 0-301 0-8.285156-6.714844-15-15-15zm-166 0h30v15c0 8.269531-6.730469 15-15 15s-15-6.730469-15-15zm-180 0h30v15c0 8.269531-6.730469 15-15 15s-15-6.730469-15-15zm-121 210v-30h80.132812l-4.285156 30zm338.144531 30.734375c-12.492187 2.113281-23.429687 8.609375-31.246093 18.429687-3.769532 2.886719-6.339844 12.957032-20.148438 12.957032-7.160156 0-13.546875-3.417969-17.519531-9.375-9.492188-14.234375-25.371094-22.734375-42.480469-22.734375s-32.992188 8.5-42.480469 22.734375c-3.972656 5.957031-10.359375 9.375-17.519531 9.375-8.8125 0-13.652344-4.136719-18.648438-10.972656-8.144531-11.261719-20.535156-18.753907-34.304687-20.65625-4.007813-.550782-8.019531-.625-11.964844-.25l17.175781-120.242188h213.980469l17.164063 120.128906c-3.980469-.265625-8.015625-.070312-12.007813.605469zm33.722657-60.734375h80.132812v30h-75.847656zm0 0"/><path d="m256 0c-8.285156 0-15 6.714844-15 15v23.859375l-55.695312 56.621094c-4.238282 4.308593-5.476563 10.742187-3.140626 16.316406 2.335938 5.574219 7.789063 9.203125 13.835938 9.203125h120c6.042969 0 11.496094-3.628906 13.832031-9.203125 2.339844-5.574219 1.101563-12.007813-3.140625-16.316406l-55.691406-56.621094v-23.859375c0-8.285156-6.714844-15-15-15zm-24.207031 91 24.207031-24.609375 24.207031 24.609375zm0 0"/></svg>