<?xml version="1.0" encoding="iso-8859-1"?>
<!-- Generator: Adobe Illustrator 21.0.0, SVG Export Plug-In . SVG Version: 6.00 Build 0)  -->
<svg xmlns="http://www.w3.org/2000/svg" xmlns:xlink="http://www.w3.org/1999/xlink" version="1.1" id="Capa_1" x="0px" y="0px" viewBox="0 0 512 512" style="enable-background:new 0 0 512 512;" xml:space="preserve" width="512" height="512">
<g>
	<circle cx="166" cy="166" r="15"/>
	<circle cx="166" cy="226" r="15"/>
	<path d="M407,391h-0.041C416.397,378.456,422,362.871,422,346v-45h30v45c0,8.284,6.716,15,15,15s15-6.716,15-15v-60   c0-8.284-6.716-15-15-15c-16.345,0-90.818,0-105,0v-90h15c8.284,0,15-6.716,15-15v-45h105c8.284,0,15-6.716,15-15   C512,47.551,464.897,0,407,0H106c-8.284,0-15,6.716-15,15c0,12.386,0,246.959,0,256H15c-8.284,0-15,6.716-15,15v211   c0,8.284,6.716,15,15,15c6.444,0,476.891,0,482,0c8.284,0,15-6.716,15-15C512,438.551,464.897,391,407,391z M392,346   c0,24.813-20.187,45-45,45s-45-20.187-45-45v-45h90V346z M332,271h-45c-8.284,0-15,6.716-15,15v60c0,16.871,5.603,32.456,15.041,45   H241V121h61v45c0,8.284,6.716,15,15,15h15V271z M362,151h-30v-30h30V151z M121,30h286c36.289,0,66.642,26.252,73.533,61H121V30z    M121,121h90v270h-60V286c0-8.284-6.716-15-15-15h-15V121z M30,361h91v60H30V361z M121,301v30H30v-30H121z M30,451h91v31H30V451z    M151,482v-61h256c36.289,0,66.642,26.252,73.533,61H151z"/>
</g>















</svg>
