<svg height="448pt" viewBox="0 -16 448 448" width="448pt" xmlns="http://www.w3.org/2000/svg"><path d="m96 146.230469v-116.460938l-82.246094-27.417969c-4.25 18.242188-13.753906 61.738282-13.753906 85.648438s9.503906 67.40625 13.753906 85.648438zm0 0"/><path d="m112 144.9375 165.65625 20.710938 42.34375 5.289062v-165.875l-208 26zm0 0"/><path d="m272 248h16v16h-16zm0 0"/><path d="m272 280h16v16h-16zm0 0"/><path d="m312 416c22.082031-.027344 39.972656-17.917969 40-40v-184.9375l-80-10v50.9375h24c4.417969 0 8 3.582031 8 8v64c0 4.417969-3.582031 8-8 8h-24v64c.027344 22.082031 17.917969 39.972656 40 40zm0 0"/><path d="m448 88c-.054688-48.386719-39.125-87.675781-87.511719-88l-24.488281 3.0625v169.875l24.488281 3.0625c48.386719-.324219 87.457031-39.613281 87.511719-88zm-16 0c0 4.417969-3.582031 8-8 8s-8-3.582031-8-8 3.582031-8 8-8 8 3.582031 8 8zm-16-40c4.417969 0 8 3.582031 8 8s-3.582031 8-8 8-8-3.582031-8-8 3.582031-8 8-8zm0 64c4.417969 0 8 3.582031 8 8s-3.582031 8-8 8-8-3.582031-8-8 3.582031-8 8-8zm0 0"/></svg>