<?xml version="1.0" encoding="utf-8"?>
<!-- Generator: Adobe Illustrator 16.0.0, SVG Export Plug-In . SVG Version: 6.00 Build 0)  -->
<!DOCTYPE svg PUBLIC "-//W3C//DTD SVG 1.1//EN" "http://www.w3.org/Graphics/SVG/1.1/DTD/svg11.dtd">
<svg xmlns="http://www.w3.org/2000/svg" xmlns:xlink="http://www.w3.org/1999/xlink" version="1.1" id="Microwave" x="0px" y="0px" width="512" height="512" viewBox="0 0 144.083 144" enable-background="new 0 0 144.083 144" xml:space="preserve">
<path d="M119.042,34.813H25.041c-4.963,0-9,4.038-9,9v50.666c0,4.963,4.037,9,9,9h3.834v5.709h6v-5.709h74.334v5.709h6v-5.709h3.834  c4.963,0,9-4.037,9-9V43.813C128.042,38.85,124.005,34.813,119.042,34.813z M22.041,94.479V43.813c0-1.654,1.346-3,3-3h69.125  v56.666H25.041C23.386,97.479,22.041,96.133,22.041,94.479z M122.042,94.479c0,1.654-1.346,3-3,3h-18.877V40.813h18.877  c1.654,0,3,1.346,3,3V94.479z"/>
<path d="M26.041,44.813v48.666h62V44.813H26.041z M82.041,87.479h-50V50.813h50V87.479z"/>
<rect x="103.833" y="48.104" width="14" height="6"/>
<rect x="103.958" y="72.855" width="6" height="6.375"/>
<rect x="112.708" y="72.855" width="6" height="6.375"/>
<rect x="103.958" y="81.855" width="6" height="6.375"/>
<rect x="112.708" y="81.855" width="6" height="6.375"/>
</svg>
