<svg height="472pt" viewBox="0 -12 472 472" width="472pt" xmlns="http://www.w3.org/2000/svg"><path d="m344 376c4.417969 0 8-3.582031 8-8v-320c0-4.417969-3.582031-8-8-8h-296c-4.417969 0-8 3.582031-8 8v320c0 4.417969 3.582031 8 8 8zm-8-48h-16v-80c-.011719-10.167969-6.417969-19.230469-16-22.632812v-9.367188h32zm-280-272h280v112h-24v-80c0-2.121094-.84375-4.15625-2.34375-5.65625l-8-8c-1.5-1.5-3.535156-2.34375-5.65625-2.34375h-48c-2.121094 0-4.15625.84375-5.65625 2.34375l-8 8c-1.5 1.5-2.34375 3.535156-2.34375 5.65625v80h-16v-80c0-2.121094-.84375-4.15625-2.34375-5.65625l-8-8c-1.5-1.5-3.535156-2.34375-5.65625-2.34375h-48c-2.121094 0-4.15625.84375-5.65625 2.34375l-2.34375 2.34375-2.34375-2.34375c-1.5-1.5-3.535156-2.34375-5.65625-2.34375h-48c-2.121094 0-4.15625.84375-5.65625 2.34375l-8 8c-1.5 1.5-2.34375 3.535156-2.34375 5.65625v80h-16zm192 85.753906v-15.507812l48-12v15.507812zm48 4.484375v18.449219l-3.3125 3.3125h-41.375l-3.3125-3.3125v-6.449219zm-48-36.476562v-18.449219l3.3125-3.3125h41.375l3.3125 3.3125v6.449219zm-88 42.238281c13.253906 0 24-10.746094 24-24s-10.746094-24-24-24c-2.730469.027344-5.4375.523438-8 1.472656v-14.160156l3.3125-3.3125h41.375l3.3125 3.3125v73.375l-3.3125 3.3125h-41.375l-3.3125-3.3125v-14.160156c2.5625.949218 5.269531 1.445312 8 1.472656zm-8-24c0-4.417969 3.582031-8 8-8s8 3.582031 8 8-3.582031 8-8 8-8-3.582031-8-8zm-32 8h-16c-5.621094-.007812-11.140625 1.472656-16 4.296875v-4.296875c0-8.835938 7.164062-16 16-16h16c5.621094.007812 11.140625-1.472656 16-4.296875v4.296875c0 8.835938-7.164062 16-16 16zm16 11.550781v17.136719l-3.3125 3.3125h-41.375l-3.007812-3.007812c1.441406-7.53125 8.027343-12.984376 15.695312-12.992188h16c5.632812-.03125 11.15625-1.570312 16-4.449219zm-48-39.101562v-17.136719l3.3125-3.3125h41.375l3.007812 3.007812c-1.441406 7.53125-8.027343 12.984376-15.695312 12.992188h-16c-5.632812.03125-11.15625 1.570312-16 4.449219zm-32 75.550781h280v16h-280zm248 88v16h-16v16h16v24h-48v-24h16v-16h-16v-16h16v-16h-16v-8c0-4.417969 3.582031-8 8-8s8-3.582031 8-8v-16h16v16c0 4.417969 3.582031 8 8 8s8 3.582031 8 8v8h-16v16zm-104-43.199219v-12.800781h56v9.367188c-9.582031 3.402343-15.988281 12.464843-16 22.632812v80h-24v-57.375c.050781-15.445312-5.652344-30.355469-16-41.824219zm-48 83.199219h48v16h-48zm-5.230469-76.488281c-1.015625 1.511719-1.816406 3.121093-2.691406 4.695312-2.253906-4.09375-4.964844-7.921875-8.078125-11.40625v-12.800781h16v12.800781c-1.898438 2.113281-3.644531 4.355469-5.230469 6.710938zm5.230469 60.488281v-16h48v16zm34.34375-58.34375c7.128906 7.117188 11.742188 16.367188 13.136719 26.34375h-46.992188c1.421875-9.976562 6.042969-19.21875 13.167969-26.34375 1.5-1.5 2.34375-3.535156 2.34375-5.65625v-16h16v16c0 2.121094.84375 4.15625 2.34375 5.65625zm-98.34375 58.34375v-16h48v16zm48 16v16h-48v-16zm-13.65625-74.34375c7.128906 7.117188 11.742188 16.367188 13.136719 26.34375h-46.992188c1.421875-9.976562 6.042969-19.21875 13.167969-26.34375 1.5-1.5 2.34375-3.535156 2.34375-5.65625v-16h16v16c0 2.121094.84375 4.15625 2.34375 5.65625zm-66.34375-21.65625h32v12.800781c-1.898438 2.105469-3.644531 4.339844-5.230469 6.6875-7.035156 10.367188-10.789062 22.609375-10.769531 35.136719v57.375h-16zm0 128h280v16h-280zm0 0"/><path d="m8 448h40c4.417969 0 8-3.582031 8-8v-24h280v24c0 4.417969 3.582031 8 8 8h40c4.417969 0 8-3.582031 8-8v-24h48c17.671875 0 32-14.328125 32-32v-352c0-17.671875-14.328125-32-32-32h-56c-3.179688 0-6.054688 1.886719-7.328125 4.800781-5.003906-3.121093-10.777344-4.785156-16.671875-4.800781h-328c-17.671875 0-32 14.328125-32 32v408c0 4.417969 3.582031 8 8 8zm416-432h16c8.835938 0 16 7.164062 16 16v352c0 8.835938-7.164062 16-16 16h-16zm-32 16v-16h16v384h-16zm-16 400h-24v-16h24zm-360-400c0-8.835938 7.164062-16 16-16h328c8.835938 0 16 7.164062 16 16v368h-360zm0 384h24v16h-24zm0 0"/></svg>