<svg height="512pt" viewBox="0 0 512 512" width="512pt" xmlns="http://www.w3.org/2000/svg"><path d="m256 0c-141.160156 0-256 114.839844-256 256s114.839844 256 256 256 256-114.839844 256-256-114.839844-256-256-256zm-213.332031 256c0-117.632812 95.699219-213.332031 213.332031-213.332031 41.65625 0 80.53125 12.042969 113.410156 32.769531l-90.65625 116.5625h-193.421875c-11.78125 0-21.332031 9.550781-21.332031 21.332031v85.335938c0 11.78125 9.550781 21.332031 21.332031 21.332031h93.863281l-70.253906 90.324219c-40.785156-38.878907-66.273437-93.664063-66.273437-154.324219zm153.117187 42.667969h-3.785156v-85.335938h70.15625zm120.429688-85.335938h110.453125v85.335938h-176.824219zm-60.214844 256c-41.65625 0-80.53125-12.042969-113.410156-32.769531l90.65625-116.5625h193.421875c11.78125 0 21.332031-9.550781 21.332031-21.332031v-85.335938c0-11.78125-9.550781-21.332031-21.332031-21.332031h-93.863281l70.253906-90.324219c40.785156 38.878907 66.273437 93.664063 66.273437 154.324219 0 117.632812-95.699219 213.332031-213.332031 213.332031zm0 0"/></svg>