<svg height="512pt" viewBox="0 -43 512 512" width="512pt" xmlns="http://www.w3.org/2000/svg"><path d="m187.734375 290.132812c-56.46875 0-102.402344-45.933593-102.402344-102.398437 0-56.46875 45.933594-102.402344 102.402344-102.402344 56.464844 0 102.398437 45.933594 102.398437 102.402344 0 56.464844-45.933593 102.398437-102.398437 102.398437zm0-170.667968c-37.644531 0-68.269531 30.621094-68.269531 68.269531s30.625 68.265625 68.269531 68.265625c37.640625 0 68.265625-30.617188 68.265625-68.265625s-30.625-68.269531-68.265625-68.269531zm0 0"/><path d="m136.535156 204.800781h-34.136718c-9.421876 0-17.066407-7.632812-17.066407-17.066406s7.644531-17.066406 17.066407-17.066406h34.136718c9.421875 0 17.066406 7.632812 17.066406 17.066406s-7.644531 17.066406-17.066406 17.066406zm0 0"/><path d="m273.066406 204.800781h-34.132812c-9.425782 0-17.066406-7.632812-17.066406-17.066406s7.640624-17.066406 17.066406-17.066406h34.132812c9.425782 0 17.066406 7.632812 17.066406 17.066406s-7.640624 17.066406-17.066406 17.066406zm0 0"/><path d="m187.734375 290.132812c-9.425781 0-17.066406-7.632812-17.066406-17.066406v-34.132812c0-9.433594 7.640625-17.066406 17.066406-17.066406s17.066406 7.632812 17.066406 17.066406v34.132812c0 9.433594-7.640625 17.066406-17.066406 17.066406zm0 0"/><path d="m187.734375 153.601562c-9.425781 0-17.066406-7.632812-17.066406-17.066406v-34.136718c0-9.433594 7.640625-17.066407 17.066406-17.066407s17.066406 7.632813 17.066406 17.066407v34.136718c0 9.433594-7.640625 17.066406-17.066406 17.066406zm0 0"/><path d="m459.066406 0h-406.132812c-29.183594 0-52.933594 23.75-52.933594 52.933594v269.597656c0 29.183594 23.75 52.933594 52.933594 52.933594h15.332031v34.136718c0 9.433594 7.644531 17.066407 17.066406 17.066407 9.425781 0 17.066407-7.632813 17.066407-17.066407v-34.136718h307.203124v34.136718c0 9.433594 7.640626 17.066407 17.066407 17.066407 9.421875 0 17.066406-7.632813 17.066406-17.066407v-34.136718h15.332031c29.183594 0 52.933594-23.75 52.933594-52.929688v-269.601562c0-29.183594-23.75-52.933594-52.933594-52.933594zm0 341.332031h-406.132812c-10.367188 0-18.800782-8.433593-18.800782-18.796875v-269.601562c0-10.367188 8.433594-18.800782 18.800782-18.800782h406.132812c10.363282 0 18.796875 8.433594 18.796875 18.800782v32.398437h-34.132812c-9.425781 0-17.066407 7.632813-17.066407 17.066407 0 9.433593 7.640626 17.066406 17.066407 17.066406h34.132812v136.535156h-34.132812c-9.425781 0-17.066407 7.632812-17.066407 17.066406s7.640626 17.066406 17.066407 17.066406h34.132812v32.402344c.003907 10.363282-8.429687 18.796875-18.796875 18.796875zm0 0"/></svg>