<?xml version="1.0" encoding="utf-8"?>
<!-- Generator: Adobe Illustrator 16.0.0, SVG Export Plug-In . SVG Version: 6.00 Build 0)  -->
<!DOCTYPE svg PUBLIC "-//W3C//DTD SVG 1.1//EN" "http://www.w3.org/Graphics/SVG/1.1/DTD/svg11.dtd">
<svg xmlns="http://www.w3.org/2000/svg" xmlns:xlink="http://www.w3.org/1999/xlink" version="1.1" id="Toaster" x="0px" y="0px" width="512" height="512" viewBox="0 0 144.083 144" enable-background="new 0 0 144.083 144" xml:space="preserve">
<path d="M120.866,84.966v-6h-8.984v-5.408c0-4.61-3.54-8.405-8.043-8.818v-6.424c0-4.012-3.263-7.275-7.273-7.275h-17.57  c-4.011,0-7.273,3.264-7.273,7.275v6.383h-2.486v-6.383c0-4.012-3.263-7.275-7.273-7.275h-17.57c-4.011,0-7.273,3.264-7.273,7.275  v6.424c-4.504,0.413-8.044,4.208-8.044,8.818v39.377h-5.857v15.439h94.522v-15.439h-5.857V84.966H120.866z M77.721,58.315  c0-0.703,0.571-1.275,1.273-1.275h17.57c0.702,0,1.273,0.572,1.273,1.275v6.383H77.721V58.315z M44.391,57.04h17.57  c0.702,0,1.273,0.572,1.273,1.275v6.383H43.118v-6.383C43.118,57.612,43.689,57.04,44.391,57.04z M111.739,122.374H29.216v-3.439  h82.522V122.374z M35.074,112.935V73.558c0-1.577,1.282-2.859,2.858-2.859h65.092c1.575,0,2.857,1.282,2.857,2.859v39.377H35.074z"/>
<path d="M54.231,39.917c1.852,0,3.701,0,5.551,0c6.664-8.098-6.662-16.195,0-24.291c-1.85,0-3.699,0-5.551,0  C47.568,23.722,60.895,31.819,54.231,39.917z"/>
<path d="M67.657,39.917c1.852,0,3.703,0,5.553,0c6.664-8.098-6.664-16.195,0-24.291c-1.85,0-3.701,0-5.553,0  C60.993,23.722,74.321,31.819,67.657,39.917z"/>
<path d="M81.084,39.917c1.852,0,3.701,0,5.553,0c6.664-8.098-6.664-16.195,0-24.291c-1.852,0-3.701,0-5.553,0  C74.42,23.722,87.749,31.819,81.084,39.917z"/>
</svg>
