<?xml version="1.0" encoding="iso-8859-1"?>
<!-- Generator: Adobe Illustrator 21.0.0, SVG Export Plug-In . SVG Version: 6.00 Build 0)  -->
<svg xmlns="http://www.w3.org/2000/svg" xmlns:xlink="http://www.w3.org/1999/xlink" version="1.1" id="Capa_1" x="0px" y="0px" viewBox="0 0 512 512" style="enable-background:new 0 0 512 512;" xml:space="preserve" width="512" height="512">
<g>
	<path d="M209.537,450.415c0,8.28,6.716,15,15.013,15h201.844c8.297,0,15.013-6.72,15.013-15v-44.64h-231.87V450.415z"/>
	<path d="M74.781,350.411c0,8.284,6.722,15,15.013,15h89.717v-58.749H74.781V350.411z"/>
	<path d="M176.306,117.405c-15.633,0-169.691,0-176.306,0v45c0,8.284,6.722,15,15.013,15h59.768v99.257h104.73   C179.511,118.03,180.993,125.136,176.306,117.405z"/>
	<path d="M440.586,117.405c-5.635-40.094-40.216-70.82-81.56-70.82H157.172c-29.452,0-56.507,15.766-71.168,40.82H189.03   c9.548,7.33,16.504,17.87,19.227,30h-0.009c1.835,8.137,1.29-10.835,1.29,258.37h231.87v-198.37h55.58   c8.291,0,15.013-6.716,15.013-15v-45H440.586z"/>
</g>















</svg>
